<svg width="325" height="309" viewBox="0 0 325 309" fill="none" xmlns="http://www.w3.org/2000/svg">
<path d="M142.223 64.2122C142.207 64.1848 142.193 64.1564 142.181 64.1272L142.2 64.1083C142.21 64.1424 142.218 64.1771 142.223 64.2122Z" fill="#3FBDF1"/>
<path d="M142.299 64.5816C142.27 64.4802 142.249 64.3767 142.236 64.272C142.287 64.3669 142.309 64.4746 142.299 64.5816Z" fill="#3FBDF1"/>
<path d="M156.901 170.979C156.82 171.155 156.752 171.328 156.67 171.511C150.671 185.4 146.485 202.018 145.513 221.905C128.857 183.113 101.225 164.336 76.613 155.319C77.055 142.356 78.9498 119.815 86.688 105.965C86.688 105.965 99.792 108.879 116.286 121.165C129.299 130.858 144.441 146.404 156.901 170.979Z" fill="#3FBDF1"/>
<path d="M159.356 170.769L158.795 170.648C158.876 170.463 158.947 170.287 159.025 170.108C159.135 170.324 159.249 170.568 159.356 170.769Z" fill="#3FBDF1"/>
<path d="M159.356 170.769L158.795 170.648C158.876 170.463 158.947 170.287 159.025 170.108C159.135 170.324 159.249 170.568 159.356 170.769Z" fill="#3FBDF1"/>
<path d="M148.588 259.81C148.428 259.81 148.263 259.81 148.107 259.81C85.9602 259.81 34.4802 215.033 25.2567 156.533C24.636 151.54 24.5417 148.558 24.5417 148.558C24.5417 148.558 46.9667 146.395 72.9667 156.125C96.0255 164.756 121.902 182.724 137.499 219.841V219.869C137.593 220.091 137.687 220.311 137.772 220.543C142.432 231.775 146.144 244.75 148.568 259.727C148.578 259.755 148.588 259.782 148.588 259.81Z" fill="#3FBDF1"/>
<path d="M293.255 150.35C287.317 216.609 230.783 268.635 161.851 268.901C161.89 265.891 162.881 231.88 184.474 201.045C194.126 187.13 207.092 175.575 222.32 167.317C222.753 167.079 223.172 166.854 223.62 166.628C224.15 166.341 224.693 166.066 225.245 165.791C225.385 165.714 225.535 165.643 225.687 165.565C226.217 165.3 226.747 165.034 227.29 164.777C227.569 164.641 227.849 164.502 228.141 164.376C228.72 164.091 229.311 163.813 229.903 163.547C230.494 163.282 231.014 163.047 231.576 162.803L231.775 162.713C232.197 162.525 232.616 162.349 233.045 162.172C233.578 161.935 234.108 161.718 234.648 161.502C236.221 160.853 237.842 160.235 239.497 159.648L240.069 159.441C240.767 159.184 241.469 158.94 242.181 158.702C256.481 153.882 273.365 150.82 293.255 150.35Z" fill="#71DDB1"/>
<path d="M199.437 119.611C185.354 129.752 169.491 145.737 159.026 170.108C146.575 145.048 131.476 129.19 118.489 119.305C126.159 105.709 143.543 78.075 159.358 65.1495C159.358 65.1495 183.3 87.6355 199.437 119.611Z" fill="#71DDB1"/>
<path d="M240.76 156.116C240.065 156.348 239.376 156.589 238.687 156.839L238.128 157.043C236.503 157.621 234.917 158.23 233.373 158.866C232.843 159.079 232.323 159.29 231.803 159.521C231.381 159.697 230.968 159.87 230.555 160.053L230.357 160.139C229.808 160.38 229.259 160.621 228.732 160.875C228.206 161.128 227.572 161.403 227 161.684C226.717 161.808 226.441 161.944 226.168 162.08C225.635 162.33 225.115 162.59 224.595 162.852C224.449 162.93 224.299 162.994 224.163 163.072C223.633 163.344 223.103 163.612 222.58 163.894C222.148 164.116 221.735 164.336 221.312 164.567C206.368 172.667 193.643 184.002 184.168 197.652C162.991 227.897 162.016 261.263 161.977 264.214L161.928 264.127C159.393 248.467 155.516 234.902 150.641 223.16L151.025 221.964L150.358 222.455C150.358 222.455 150.358 222.455 150.358 222.437C151.311 202.543 155.406 185.91 161.282 172.027L161.831 172.141L161.506 171.495C171.773 147.588 187.334 131.909 201.156 121.962C217.435 110.251 231.313 106.46 231.313 106.46C238.716 115.161 240.406 141.779 240.76 156.116Z" fill="#3FBDF1"/>
<path d="M147.01 225.37V225.338C147.01 225.338 147.01 225.357 147.01 225.37Z" stroke="#CCDDE2" stroke-width="0.585007" stroke-miterlimit="10"/>
<path d="M159.023 170.41C158.938 170.599 158.864 170.784 158.779 170.982C152.445 185.956 148.028 203.894 146.998 225.348C129.415 183.5 100.24 163.239 74.2434 153.514C74.7082 139.529 76.7102 115.214 84.8872 100.271C84.8872 100.271 98.7224 103.413 116.139 116.669C129.88 127.126 145.867 143.898 159.023 170.41Z" stroke="#CCDDE2" stroke-width="0.585007" stroke-miterlimit="10"/>
<path d="M159.372 171.109L158.779 170.982C158.863 170.784 158.938 170.599 159.022 170.41C159.139 170.639 159.249 170.877 159.372 171.109Z" stroke="#CCDDE2" stroke-width="0.585007" stroke-miterlimit="10"/>
<path d="M147.01 225.37V225.338C147.01 225.338 147.01 225.357 147.01 225.37Z" stroke="#CCDDE2" stroke-width="0.585007" stroke-miterlimit="10"/>
<path d="M159.372 171.109L158.779 170.982C158.863 170.784 158.938 170.599 159.022 170.41C159.139 170.639 159.249 170.877 159.372 171.109Z" stroke="#CCDDE2" stroke-width="0.585007" stroke-miterlimit="10"/>
<path opacity="0.9" d="M51.8408 220.978C50.6936 219.646 49.5658 218.284 48.4803 216.899C33.868 198.416 24.2424 176.81 20.4458 153.972C19.5001 148.376 19.6463 144.983 19.6463 144.983C19.6463 144.983 44.9151 142.548 74.2463 153.514C100.246 163.242 129.412 183.487 146.998 225.348V225.382C147.105 225.632 147.215 225.882 147.303 226.142C152.568 238.811 156.748 253.433 159.484 270.329C159.484 270.36 159.484 270.39 159.484 270.424C159.299 270.424 159.123 270.424 158.938 270.424C122.678 270.375 89.6091 256.625 64.6751 234.16C62.0751 231.821 59.5433 229.377 57.1253 226.846" stroke="#CCDDE2" stroke-width="0.585007" stroke-miterlimit="10"/>
<path d="M147.01 225.37V225.338C147.01 225.338 147.01 225.357 147.01 225.37Z" stroke="#CCDDE2" stroke-width="0.585007" stroke-miterlimit="10"/>
<path opacity="0.9" d="M298.552 144.992C292.27 215.089 232.47 270.118 159.543 270.4C159.585 267.217 160.635 231.237 183.473 198.616C193.686 183.897 207.405 171.674 223.516 162.939C223.974 162.688 224.419 162.451 224.884 162.213C225.446 161.904 226.018 161.619 226.59 161.326C226.737 161.242 226.896 161.171 227.055 161.088C227.617 160.807 228.18 160.525 228.752 160.257C229.047 160.108 229.343 159.948 229.652 159.827C230.266 159.518 230.89 159.237 231.517 158.956C232.145 158.675 232.691 158.424 233.285 158.165L233.497 158.069C233.942 157.871 234.387 157.686 234.842 157.497C235.404 157.247 235.963 157.018 236.535 156.79C238.199 156.104 239.915 155.449 241.664 154.824L242.268 154.605C243.009 154.336 243.75 154.074 244.504 153.826C259.653 148.716 277.515 145.49 298.552 144.992Z" stroke="#CCDDE2" stroke-width="0.585007" stroke-miterlimit="10"/>
<path d="M201.77 116.994C186.875 127.719 170.092 144.627 159.023 170.41C145.867 143.898 129.88 127.126 116.139 116.669C124.264 102.279 142.646 73.0537 159.364 59.3805C159.374 59.3805 184.681 83.1673 201.77 116.994Z" stroke="#CCDDE2" stroke-width="0.585007" stroke-miterlimit="10"/>
<path d="M61.5094 193.573C61.5127 193.552 61.5127 193.531 61.5094 193.51C61.5094 193.488 61.5094 193.466 61.5094 193.426C61.5044 193.391 61.5044 193.355 61.5094 193.32C61.5185 193.395 61.5335 193.469 61.5544 193.541C61.5496 193.549 61.5431 193.556 61.5354 193.562C61.5276 193.567 61.5188 193.571 61.5094 193.573Z" fill="white"/>
<path d="M61.6301 213.547C61.1286 215.085 60.4881 216.579 59.7159 218.012C59.4949 218.417 59.2771 218.812 59.0366 219.208C58.2156 220.673 57.2081 222.037 56.0369 223.268C55.8289 223.203 55.6209 223.12 55.4356 223.049C55.3934 223.049 55.3576 223.018 55.3251 223.005C51.5389 221.436 48.6951 218.491 47.8501 215.181C47.0961 212.268 47.7754 209.116 46.3194 206.381C44.5254 203.013 39.6894 200.906 39.0849 197.099C38.5389 193.539 41.9091 190.273 41.3599 186.787C40.7359 182.842 35.6366 180.502 34.6941 176.652C34.0929 174.261 34.6291 171.501 34.4114 169.035C34.1597 166.279 33.6684 163.548 32.9424 160.869C33.2934 160.847 33.6444 160.838 33.9954 160.825C41.1454 160.711 48.2206 164.533 50.5411 169.919C52.4131 174.27 51.4609 179.294 53.9439 183.373C54.0943 183.636 54.2626 183.89 54.4476 184.133C54.7734 184.563 55.1238 184.976 55.4974 185.369L56.2871 186.151C56.4171 186.274 56.5601 186.389 56.6901 186.525C56.8201 186.661 56.9631 186.775 57.0964 186.911C58.3314 188.033 59.5924 189.167 60.4114 190.511C60.487 190.628 60.5533 190.749 60.6096 190.876C60.6863 190.998 60.7515 191.126 60.8046 191.259C60.8753 191.394 60.9382 191.534 60.9931 191.676C61.0581 191.83 61.1134 191.985 61.1654 192.155C61.2434 192.405 61.3214 192.643 61.3734 192.893C61.3734 192.955 61.3734 193.008 61.3961 193.06C61.4189 193.113 61.3961 193.1 61.3961 193.122C61.4009 193.142 61.4009 193.163 61.3961 193.184C61.4008 193.219 61.4085 193.254 61.4189 193.289V193.31C61.4201 193.349 61.4266 193.388 61.4384 193.425C61.4384 193.465 61.4384 193.487 61.4384 193.508C61.4417 193.529 61.4417 193.55 61.4384 193.57V193.592L60.5966 205.204C61.1361 208.013 62.4849 210.812 61.6301 213.547Z" fill="white"/>
<path d="M67.9865 185.36C68.5357 182.841 68.578 180.199 69.826 177.795C72.1465 173.364 78.926 170.148 86.0337 169.941H86.1637C86.8137 169.941 87.4637 169.941 88.1137 169.972C87.3784 172.275 86.8767 174.641 86.6155 177.035C86.375 179.167 86.9405 181.553 86.3197 183.602C85.322 186.929 80.0147 188.95 79.3712 192.352C78.7992 195.368 82.3125 198.189 81.734 201.258C81.11 204.546 76.0757 206.366 74.2167 209.292C72.7152 211.656 73.4172 214.369 72.6405 216.878C71.7305 219.739 68.7405 222.288 64.8047 223.629C64.5512 223.713 64.3237 223.796 64.0702 223.87C63.937 223.901 63.7842 223.954 63.6542 223.985C63.6087 223.954 63.5665 223.911 63.5112 223.87C62.2405 222.841 60.817 221.105 59.6372 219.235L59.725 218.049C60.4972 216.616 61.1377 215.122 61.6392 213.584C62.494 210.849 61.1452 208.05 60.6642 205.241L61.506 193.629L61.7692 193.422C61.8653 193.354 61.9565 193.281 62.0422 193.202C63.3422 192.204 64.7462 191.246 65.7505 190.112C66.9985 188.719 67.5802 187.189 67.9507 185.585" fill="white"/>
<path d="M67.9543 185.528C67.9543 185.475 67.9745 185.425 67.9831 185.36L67.9543 185.528Z" fill="white"/>
<path d="M67.9875 185.351C67.9875 185.415 67.9647 185.465 67.955 185.517C67.5845 187.121 67.0027 188.651 65.7547 190.044C64.7505 191.178 63.3497 192.136 62.0465 193.134C61.9608 193.213 61.8696 193.286 61.7735 193.354L61.5102 193.57C61.5147 193.557 61.5147 193.543 61.5102 193.53C61.5002 193.494 61.4883 193.459 61.4745 193.425C61.4694 193.39 61.4694 193.354 61.4745 193.32V193.298C61.4641 193.264 61.4565 193.228 61.4517 193.193C61.4565 193.173 61.4565 193.151 61.4517 193.131C61.4566 193.122 61.4592 193.111 61.4592 193.1C61.4592 193.09 61.4566 193.079 61.4517 193.069C61.4436 193.013 61.4316 192.957 61.416 192.902C61.364 192.652 61.286 192.414 61.208 192.164C61.156 192.006 61.1007 191.84 61.0357 191.685C60.9808 191.543 60.9179 191.404 60.8472 191.268C60.8011 191.132 60.7355 191.003 60.6522 190.885C60.5959 190.759 60.5296 190.637 60.454 190.52C59.635 189.176 58.374 188.048 57.139 186.92C57.0057 186.784 56.866 186.648 56.7327 186.534C56.5995 186.42 56.4597 186.284 56.3297 186.16L55.54 185.378C55.1664 184.985 54.816 184.572 54.4902 184.142C54.4902 184.142 55.2182 172.113 61.6857 168.473C67.7925 165.006 67.9875 183.32 67.9875 185.351Z" fill="white"/>
<path d="M67.9543 185.528C67.9543 185.475 67.9745 185.425 67.9831 185.36L67.9543 185.528Z" fill="white"/>
<path d="M61.501 193.532V193.582C61.5047 193.561 61.5047 193.54 61.501 193.519C61.501 193.497 61.501 193.475 61.501 193.435C61.4951 193.4 61.4951 193.364 61.501 193.329C61.4954 193.396 61.4954 193.464 61.501 193.532Z" fill="white"/>
<path d="M83.3894 173.791C71.7317 185.718 66.2522 210.871 64.1169 223.849C63.9414 224.946 63.7919 225.947 63.6489 226.849" fill="white"/>
<path d="M84.4642 234.157L79.1017 264.241C78.9747 265.063 78.5463 265.816 77.8922 266.367C77.238 266.917 76.4002 267.231 75.5267 267.251H47.4922C46.6112 267.23 45.7672 266.91 45.1119 266.35C44.4566 265.79 44.033 265.026 43.9172 264.195L38.9707 234.157H84.4642Z" fill="white"/>
<path d="M89.5571 230.801C89.5083 231.692 89.1076 232.533 88.4352 233.155C87.7627 233.777 86.8681 234.135 85.9301 234.157H37.5799C36.6512 234.136 35.7645 233.785 35.0939 233.174C34.4234 232.563 34.0175 231.735 33.9561 230.854C33.7514 228.709 35.4316 226.837 37.5799 226.837H85.9301C88.0556 226.852 89.7294 228.66 89.5571 230.801Z" fill="white"/>
<path d="M61.5296 193.594C61.5288 193.526 61.5178 193.458 61.4968 193.394L61.5296 193.594Z" fill="white"/>
<path d="M37.5735 165.287C48.7632 179.106 54.0282 208.238 56.0985 223.277C56.274 224.581 56.4235 225.777 56.5567 226.846" fill="white"/>
<path d="M62.5172 179.971C61.1165 184.071 61.0483 188.212 61.2172 190.835C61.2619 191.682 61.3563 192.526 61.5 193.363" fill="white"/>
<path d="M61.5094 193.573C61.5127 193.552 61.5127 193.531 61.5094 193.51C61.5094 193.488 61.5094 193.466 61.5094 193.426C61.5044 193.391 61.5044 193.355 61.5094 193.32C61.5185 193.395 61.5335 193.469 61.5544 193.541C61.5496 193.549 61.5431 193.556 61.5354 193.562C61.5276 193.567 61.5188 193.571 61.5094 193.573Z" stroke="#CCDDE2" stroke-width="0.585007" stroke-miterlimit="10"/>
<path d="M61.6301 213.547C61.1286 215.085 60.4881 216.579 59.7159 218.012C59.4949 218.417 59.2771 218.812 59.0366 219.208C58.2156 220.673 57.2081 222.037 56.0369 223.268C55.8289 223.203 55.6209 223.12 55.4356 223.049C55.3934 223.049 55.3576 223.018 55.3251 223.005C51.5389 221.436 48.6951 218.491 47.8501 215.181C47.0961 212.268 47.7754 209.116 46.3194 206.381C44.5254 203.013 39.6894 200.906 39.0849 197.099C38.5389 193.539 41.9091 190.273 41.3599 186.787C40.7359 182.842 35.6366 180.502 34.6941 176.652C34.0929 174.261 34.6291 171.501 34.4114 169.035C34.1597 166.279 33.6684 163.548 32.9424 160.869C33.2934 160.847 33.6444 160.838 33.9954 160.825C41.1454 160.711 48.2206 164.533 50.5411 169.919C52.4131 174.27 51.4609 179.294 53.9439 183.373C54.0943 183.636 54.2626 183.89 54.4476 184.133C54.7734 184.563 55.1238 184.976 55.4974 185.369L56.2871 186.151C56.4171 186.274 56.5601 186.389 56.6901 186.525C56.8201 186.661 56.9631 186.775 57.0964 186.911C58.3314 188.033 59.5924 189.167 60.4114 190.511C60.487 190.628 60.5533 190.749 60.6096 190.876C60.6863 190.998 60.7515 191.126 60.8046 191.259C60.8753 191.394 60.9382 191.534 60.9931 191.676C61.0581 191.83 61.1134 191.985 61.1654 192.155C61.2434 192.405 61.3214 192.643 61.3734 192.893C61.3734 192.955 61.3734 193.008 61.3961 193.06C61.4189 193.113 61.3961 193.1 61.3961 193.122C61.4009 193.142 61.4009 193.163 61.3961 193.184C61.4008 193.219 61.4085 193.254 61.4189 193.289V193.31C61.4201 193.349 61.4266 193.388 61.4384 193.425V193.425C61.4384 193.465 61.4384 193.487 61.4384 193.508C61.4417 193.529 61.4417 193.55 61.4384 193.57V193.592L60.5966 205.204C61.1361 208.013 62.4849 210.812 61.6301 213.547Z" stroke="#CCDDE2" stroke-width="0.585007" stroke-miterlimit="10"/>
<path d="M67.9865 185.36C68.5357 182.841 68.578 180.199 69.826 177.795C72.1465 173.364 78.926 170.148 86.0337 169.941H86.1637C86.8137 169.941 87.4637 169.941 88.1137 169.972C87.3784 172.275 86.8767 174.641 86.6155 177.035C86.375 179.167 86.9405 181.553 86.3197 183.602C85.322 186.929 80.0147 188.95 79.3712 192.352C78.7992 195.368 82.3125 198.189 81.734 201.258C81.11 204.546 76.0757 206.366 74.2167 209.292C72.7152 211.656 73.4172 214.369 72.6405 216.878C71.7305 219.739 68.7405 222.288 64.8047 223.629C64.5512 223.713 64.3237 223.796 64.0702 223.87C63.937 223.901 63.7842 223.954 63.6542 223.985C63.6087 223.954 63.5665 223.911 63.5112 223.87C62.2405 222.841 60.817 221.105 59.6372 219.235L59.725 218.049C60.4972 216.616 61.1377 215.122 61.6392 213.584C62.494 210.849 61.1452 208.05 60.6642 205.241L61.506 193.629L61.7692 193.422C61.8653 193.354 61.9565 193.281 62.0422 193.202C63.3422 192.204 64.7462 191.246 65.7505 190.112C66.9985 188.719 67.5802 187.189 67.9507 185.585" stroke="#CCDDE2" stroke-width="0.585007" stroke-miterlimit="10"/>
<path d="M67.9543 185.528C67.9543 185.475 67.9745 185.425 67.9831 185.36" stroke="#CCDDE2" stroke-width="0.585007" stroke-miterlimit="10"/>
<path d="M67.9875 185.351C67.9875 185.415 67.9647 185.465 67.955 185.517C67.5845 187.121 67.0027 188.651 65.7547 190.044C64.7505 191.178 63.3497 192.136 62.0465 193.134C61.9608 193.213 61.8696 193.286 61.7735 193.354L61.5102 193.57C61.5147 193.557 61.5147 193.543 61.5102 193.53C61.5002 193.494 61.4883 193.459 61.4745 193.425V193.425C61.4694 193.39 61.4694 193.354 61.4745 193.32V193.298C61.4641 193.264 61.4565 193.228 61.4517 193.193C61.4565 193.173 61.4565 193.151 61.4517 193.131C61.4566 193.122 61.4592 193.111 61.4592 193.1C61.4592 193.09 61.4566 193.079 61.4517 193.069C61.4436 193.013 61.4316 192.957 61.416 192.902C61.364 192.652 61.286 192.414 61.208 192.164C61.156 192.006 61.1007 191.84 61.0357 191.685C60.9808 191.543 60.9179 191.404 60.8472 191.268C60.8011 191.132 60.7355 191.003 60.6522 190.885C60.5959 190.759 60.5296 190.637 60.454 190.52C59.635 189.176 58.374 188.048 57.139 186.92C57.0057 186.784 56.866 186.648 56.7327 186.534C56.5995 186.42 56.4597 186.284 56.3297 186.16L55.54 185.378C55.1664 184.985 54.816 184.572 54.4902 184.142C54.4902 184.142 55.2182 172.113 61.6857 168.473C67.7925 165.006 67.9875 183.32 67.9875 185.351Z" stroke="#CCDDE2" stroke-width="0.585007" stroke-miterlimit="10"/>
<path d="M67.9543 185.528C67.9543 185.475 67.9745 185.425 67.9831 185.36" stroke="#CCDDE2" stroke-width="0.585007" stroke-miterlimit="10"/>
<path d="M61.501 193.532V193.582C61.5047 193.561 61.5047 193.54 61.501 193.519C61.501 193.497 61.501 193.475 61.501 193.435C61.4951 193.4 61.4951 193.364 61.501 193.329C61.4954 193.396 61.4954 193.464 61.501 193.532V193.532Z" stroke="#CCDDE2" stroke-width="0.585007" stroke-miterlimit="10"/>
<path d="M83.3894 173.791C71.7317 185.718 66.2522 210.871 64.1169 223.849C63.9414 224.946 63.7919 225.947 63.6489 226.849" stroke="#CCDDE2" stroke-width="0.585007" stroke-miterlimit="10"/>
<path d="M84.4642 234.157L79.1017 264.241C78.9747 265.063 78.5463 265.816 77.8922 266.367C77.238 266.917 76.4002 267.231 75.5267 267.251H47.4922C46.6112 267.23 45.7672 266.91 45.1119 266.35C44.4566 265.79 44.033 265.026 43.9172 264.195L38.9707 234.157H84.4642Z" stroke="#CCDDE2" stroke-width="0.585007" stroke-miterlimit="10"/>
<path d="M89.5571 230.801C89.5083 231.692 89.1076 232.533 88.4352 233.155C87.7627 233.777 86.8681 234.135 85.9301 234.157H37.5799C36.6512 234.136 35.7645 233.785 35.0939 233.174C34.4234 232.563 34.0175 231.735 33.9561 230.854V230.854C33.7514 228.709 35.4316 226.837 37.5799 226.837H85.9301C88.0556 226.852 89.7294 228.66 89.5571 230.801Z" stroke="#CCDDE2" stroke-width="0.585007" stroke-miterlimit="10"/>
<path d="M61.5296 193.594C61.5288 193.526 61.5178 193.458 61.4968 193.394L61.5296 193.594Z" stroke="#CCDDE2" stroke-width="0.585007" stroke-miterlimit="10"/>
<path d="M37.5735 165.287C48.7632 179.106 54.0282 208.238 56.0985 223.277C56.274 224.581 56.4235 225.777 56.5567 226.846" stroke="#CCDDE2" stroke-width="0.585007" stroke-miterlimit="10"/>
<path d="M62.5172 179.971C61.1165 184.071 61.0483 188.212 61.2172 190.835C61.2619 191.682 61.3563 192.526 61.5 193.363" stroke="#CCDDE2" stroke-width="0.585007" stroke-miterlimit="10"/>
<path d="M244.504 153.826C243.75 154.074 243.009 154.336 242.268 154.605L241.663 154.824C239.915 155.442 238.199 156.104 236.535 156.79C235.963 157.018 235.404 157.247 234.842 157.497C234.387 157.686 233.941 157.871 233.496 158.069L233.285 158.165C232.69 158.424 232.099 158.684 231.517 158.956C230.935 159.228 230.266 159.527 229.651 159.827C229.326 159.963 229.047 160.108 228.751 160.257C228.179 160.525 227.617 160.807 227.055 161.088C226.895 161.171 226.73 161.242 226.59 161.326C226.018 161.619 225.446 161.91 224.884 162.213C224.419 162.451 223.974 162.688 223.515 162.939C207.404 171.674 193.686 183.897 183.472 198.616C160.634 231.237 159.585 267.214 159.542 270.4L159.487 270.307C156.754 253.42 152.571 238.789 147.316 226.12L147.729 224.831L147.01 225.363C147.01 225.363 147.01 225.363 147.01 225.341C148.041 203.887 152.457 185.95 158.792 170.976L159.386 171.103C159.269 170.871 159.152 170.633 159.035 170.404C170.105 144.621 186.888 127.713 201.783 116.987C219.333 104.355 234.305 100.264 234.305 100.264C242.3 109.658 244.12 138.364 244.504 153.826Z" stroke="#CCDDE2" stroke-width="0.585007" stroke-miterlimit="10"/>
<path d="M245.567 264.813C243.235 264.368 240.952 263.837 238.716 263.219C229.544 260.669 218.891 256.319 215.238 247.172C214.323 244.809 214.035 242.268 214.399 239.774C214.762 237.28 215.766 234.91 217.321 232.872C218.969 230.698 221.285 229.065 223.951 228.197C229.752 226.414 236.171 229.191 240.474 233.301C244.777 237.411 247.546 242.701 250.916 247.534C247.868 241.045 244.774 234.367 244.354 227.273C244.029 221.741 245.609 215.744 249.619 211.588C253.311 207.762 261.943 204.768 267.026 207.571C270.38 209.425 271.719 213.368 272.295 217.014C273.874 226.991 271.846 237.13 269.828 247.036C271.183 241.74 272.639 236.394 275.402 231.617C278.164 226.84 282.399 222.619 287.823 220.848C291.622 219.612 296.133 219.745 299.315 222.084C302.282 224.247 303.608 227.934 304.018 231.475C304.7 237.414 303.231 243.436 300.703 248.903C291.268 269.306 265.102 268.521 245.567 264.813Z" fill="white"/>
<path d="M266.855 254.712C266.855 254.712 281.399 258.553 286.534 239.333L266.855 254.712Z" fill="white"/>
<path d="M260.384 221.905C256.341 230.619 260.384 256.764 260.384 256.764V221.905Z" fill="white"/>
<path d="M246.906 254.119C246.298 254.02 240.465 253.244 235.492 251.072C231.641 249.391 228.303 246.869 228.303 243.18" fill="white"/>
<path d="M236.659 243.183C236.659 243.183 230.975 249.483 235.492 251.075L236.659 243.183Z" fill="white"/>
<path d="M232.886 256.807C233.695 255.738 237.904 257.882 240.653 252.836L232.886 256.807Z" fill="white"/>
<path d="M258.586 233.44C257.15 232.414 253.386 233.44 252.834 225.236L258.586 233.44Z" fill="white"/>
<path d="M259.214 241.128C259.214 241.128 265.506 238.965 265.506 234.284L259.214 241.128Z" fill="white"/>
<path d="M272.736 254.823C272.736 254.823 276.019 246.767 277.368 243.18L272.736 254.823Z" fill="white"/>
<path d="M282.929 247.126C282.929 247.126 286.534 249.842 290.846 245.485L282.929 247.126Z" fill="white"/>
<path d="M282.929 243.183C282.929 243.183 280.602 242.222 281.681 236.694L282.929 243.183Z" fill="white"/>
<path d="M245.567 264.813C243.214 264.504 240.948 263.84 238.716 263.219C229.544 260.669 218.891 256.319 215.238 247.172C214.323 244.809 214.035 242.268 214.399 239.774C214.762 237.28 215.766 234.91 217.321 232.872C218.969 230.698 221.285 229.065 223.951 228.197C229.752 226.414 236.171 229.191 240.474 233.301C244.777 237.411 247.546 242.701 250.916 247.534C247.868 241.045 244.774 234.367 244.354 227.273C244.029 221.741 245.609 215.744 249.619 211.588C253.311 207.762 261.943 204.768 267.026 207.571C270.38 209.425 271.719 213.368 272.295 217.014C273.874 226.991 271.846 237.13 269.828 247.036C271.183 241.74 272.639 236.394 275.402 231.617C278.164 226.84 282.399 222.619 287.823 220.848C291.622 219.612 296.133 219.745 299.315 222.084C302.282 224.247 303.608 227.934 304.018 231.475C304.7 237.414 303.319 243.477 300.703 248.903C291.115 268.768 264.748 267.266 245.567 264.813Z" stroke="#CCDDE2" stroke-width="0.585007" stroke-miterlimit="10"/>
<path d="M266.855 254.712C266.855 254.712 281.399 258.553 286.534 239.333" stroke="#CCDDE2" stroke-width="0.585007" stroke-miterlimit="10"/>
<path d="M260.384 221.905C256.341 230.619 260.384 256.764 260.384 256.764" stroke="#CCDDE2" stroke-width="0.585007" stroke-miterlimit="10"/>
<path d="M246.906 254.119C246.298 254.02 240.465 253.244 235.492 251.072C231.641 249.391 228.303 246.869 228.303 243.18" stroke="#CCDDE2" stroke-width="0.585007" stroke-miterlimit="10"/>
<path d="M236.659 243.183C236.659 243.183 230.975 249.483 235.492 251.075" stroke="#CCDDE2" stroke-width="0.585007" stroke-miterlimit="10"/>
<path d="M232.886 256.807C233.695 255.738 237.904 257.882 240.653 252.836" stroke="#CCDDE2" stroke-width="0.585007" stroke-miterlimit="10"/>
<path d="M258.586 233.44C257.15 232.414 253.386 233.44 252.834 225.236" stroke="#CCDDE2" stroke-width="0.585007" stroke-miterlimit="10"/>
<path d="M259.214 241.128C259.214 241.128 265.506 238.965 265.506 234.284" stroke="#CCDDE2" stroke-width="0.585007" stroke-miterlimit="10"/>
<path d="M272.736 254.823C272.736 254.823 276.019 246.767 277.368 243.18" stroke="#CCDDE2" stroke-width="0.585007" stroke-miterlimit="10"/>
<path d="M282.929 247.126C282.929 247.126 286.534 249.842 290.846 245.485" stroke="#CCDDE2" stroke-width="0.585007" stroke-miterlimit="10"/>
<path d="M282.929 243.183C282.929 243.183 280.602 242.222 281.681 236.694" stroke="#CCDDE2" stroke-width="0.585007" stroke-miterlimit="10"/>
<path d="M283.921 195.112C286.827 197.492 289.421 200.197 291.646 203.167C295.737 208.486 298.052 214.851 298.289 221.436" stroke="#CCDDE2" stroke-width="0.585007" stroke-miterlimit="10"/>
<path d="M182.562 86.174C188.412 82.8244 194.513 79.8488 201 77.7476C217.175 72.4946 235.209 73.6595 248.024 85.1883C259.132 95.1721 264.384 110.004 265.457 124.218C265.457 124.425 265.493 124.644 265.502 124.864C265.993 132.187 265.59 140.274 265.535 148.366" stroke="#CCDDE2" stroke-width="0.585007" stroke-miterlimit="10"/>
<path d="M55.0487 147.918C56.5144 139.022 54.7237 130.655 53.7487 121.499C51.2397 97.6441 59.2184 69.1017 88.1207 65.5328C103.825 63.5861 116.571 69.1635 127.189 79.8611C129.574 82.262 131.96 85.0832 134.485 87.8086" stroke="#CCDDE2" stroke-width="0.585007" stroke-miterlimit="10"/>
<path d="M43.7771 226.701C43.7771 226.701 21.8884 217.536 24.0789 200.315C24.6899 195.455 27.0981 191.107 30.1401 187.112" stroke="#CCDDE2" stroke-width="0.585007" stroke-miterlimit="10"/>
<path d="M241.476 238.183C240.644 237.613 239.777 237.071 238.876 236.558C229.886 231.5 217.637 229.538 207.367 228.95C206.74 228.907 206.122 228.876 205.511 228.852C204.702 228.818 203.91 228.616 203.191 228.261C202.445 227.904 201.798 227.387 201.299 226.75C200.795 224.868 200.19 223.012 199.486 221.188L198.043 215.008C197.504 213.221 197.082 211.404 196.778 209.567C195.283 200.275 194.178 188.728 193.788 184.405C193.835 184.424 193.884 184.438 193.935 184.445L198.397 185.805C198.413 185.803 198.429 185.803 198.446 185.805L200.028 186.247C206.164 187.903 212.603 189.145 218.995 189.278C225.021 189.398 231.631 188.459 236.779 185.289C237.213 185.029 237.633 184.751 238.04 184.454C242.012 181.612 244.771 177.249 246.334 172.821C249.211 164.63 249.832 155.876 248.138 147.393C247.658 145.057 246.983 142.761 246.12 140.527C243.845 134.579 240.559 129.004 237.738 123.223C237.088 121.876 236.159 120.464 236.045 118.968C235.908 117.185 236.87 115.47 237.173 113.737C237.525 111.654 237.688 109.546 237.66 107.436C237.656 104.934 237.152 102.455 236.175 100.131C235.333 98.1786 233.838 94.9032 231.183 95.0237C230.331 92.4343 228.908 89.437 226.402 89.1002C225.752 89.0054 225.088 89.1587 224.556 89.5266C224.372 89.2761 224.174 89.0357 223.961 88.8066C222.915 87.688 220.936 86.6807 219.346 87.2616C216.194 88.4482 217.637 92.5733 219.2 95.7035C218.396 95.5388 217.57 95.4868 216.75 95.549C214.913 95.7035 212.788 96.408 212.076 98.089C211.689 99.016 211.826 100.688 212.814 101.213C214.068 101.865 215.609 101.432 216.863 102.044C218.264 102.73 218.813 104.569 218.609 105.959C218.569 106.504 218.34 107.022 217.959 107.43C215.742 109.537 214.221 103.722 213.379 102.764C212.235 101.457 210.558 101.695 209.366 102.798C207.009 104.961 208.033 109.318 209.021 111.932C210.094 114.794 211.488 117.803 213.714 120.031C217.416 123.724 217.822 129.61 218.8 134.372C219.203 136.34 219.59 138.327 219.902 140.311C220.52 144.161 220.877 148.036 220.552 151.923C220.47 152.99 220.156 154.029 219.632 154.976C219.107 155.922 218.382 156.755 217.502 157.423C216.623 158.09 215.608 158.577 214.521 158.854C213.434 159.13 212.298 159.19 211.186 159.03C208.537 158.647 205.436 158.189 202.134 157.698C202.134 157.698 202.16 157.673 202.177 157.667C197.675 156.212 193.694 156.033 189.732 155.835C178.556 154.191 168.52 152.646 168.52 152.646C168.291 152.606 168.085 152.491 167.935 152.322C167.786 152.153 167.703 151.94 167.701 151.719L167.564 139.921C168.328 140.811 169.985 140.935 170.999 140.419C171.402 140.224 171.734 139.917 171.95 139.539C172.167 139.161 172.258 138.73 172.212 138.302C172.869 138.297 173.515 138.139 174.093 137.842C174.265 137.751 174.429 137.647 174.584 137.533C174.905 137.259 175.164 136.926 175.344 136.555C175.525 136.183 175.623 135.779 175.634 135.37C175.648 135.144 175.636 134.917 175.598 134.693C175.598 134.61 175.572 134.529 175.556 134.44C175.52 134.267 175.478 134.097 175.426 133.914C175.4 133.809 175.367 133.704 175.332 133.605C175.247 133.296 175.153 132.987 175.081 132.678C175.119 132.683 175.157 132.683 175.195 132.678C175.516 132.661 175.834 132.618 176.147 132.549C176.445 132.481 176.735 132.388 177.015 132.271C177.172 132.204 177.325 132.13 177.473 132.048C177.499 132.04 177.522 132.026 177.542 132.008C177.793 131.861 178.031 131.695 178.253 131.51C178.329 131.452 178.4 131.389 178.468 131.322C178.595 131.209 178.715 131.089 178.829 130.963C178.974 130.802 179.109 130.633 179.235 130.457C179.296 130.382 179.35 130.302 179.397 130.219C179.848 129.531 180.178 128.777 180.372 127.988C180.389 127.914 180.408 127.839 180.424 127.768C181.074 124.827 180.099 121.468 177.382 120.371C176.84 120.152 174.916 119.938 174.916 119.163C174.917 119.107 174.925 119.052 174.942 118.999C174.939 118.988 174.939 118.976 174.942 118.965C174.993 118.85 175.067 118.745 175.159 118.656C175.202 118.607 175.26 118.557 175.312 118.508C175.426 118.412 175.553 118.322 175.673 118.23C175.796 118.152 175.915 118.068 176.027 117.976C176.075 117.938 176.12 117.898 176.164 117.856C176.248 117.766 176.336 117.676 176.414 117.587C176.491 117.498 176.563 117.406 176.628 117.309C176.697 117.21 176.765 117.111 176.827 117C176.894 116.902 176.952 116.799 176.999 116.691C177.097 116.507 177.177 116.316 177.239 116.119C177.349 115.795 177.418 115.46 177.444 115.121C177.444 115.001 177.444 114.877 177.444 114.753C177.444 112.04 175.117 109.232 172.176 108.935C171.7 108.885 171.219 108.939 170.769 109.092C170.547 109.165 170.33 109.25 170.119 109.346L169.794 109.491C169.573 109.59 169.348 109.695 169.118 109.8C168.923 109.888 168.712 109.939 168.497 109.948C168.448 109.947 168.399 109.941 168.351 109.93L168.256 109.905C168.188 109.891 168.126 109.857 168.078 109.809C168.021 109.77 167.973 109.719 167.938 109.661C167.909 109.604 167.888 109.544 167.876 109.482C167.874 109.478 167.873 109.474 167.873 109.469C167.873 109.465 167.874 109.461 167.876 109.457C167.86 109.385 167.852 109.311 167.853 109.238C167.853 109.085 167.876 108.933 167.922 108.787C168.013 108.467 168.059 108.138 168.058 107.807C168.058 107.687 168.049 107.567 168.032 107.449C168.016 107.284 167.99 107.12 167.954 106.957C167.636 105.762 166.88 104.713 165.822 104C162.842 101.998 157.255 101.989 155.715 105.7C155.682 105.755 155.666 105.814 155.64 105.87C155.442 105.65 155.243 105.422 155.045 105.193C154.908 105.109 154.765 105.035 154.616 104.97C152.552 104.114 149.598 104.482 148.093 106.157C146.845 107.547 146.436 109.695 147.544 111.271C146.923 110.508 146.08 109.934 145.12 109.621C145.234 109.927 145.387 110.218 145.575 110.489C145.487 110.375 145.392 110.266 145.292 110.162C145.214 110.078 145.136 110.004 145.058 109.933C144.98 109.862 144.869 109.76 144.775 109.686C144.681 109.612 144.577 109.531 144.476 109.457C142.542 108.11 139.695 107.971 137.892 109.655C136.481 110.971 136.189 112.791 136.689 114.556C137.19 116.32 138.389 117.547 139.289 119.067C136.237 119.796 133.797 123.013 134.759 126.029C134.96 126.653 135.311 127.223 135.786 127.694C136.261 128.165 136.845 128.524 137.492 128.742C137.723 128.797 137.959 128.835 138.197 128.856C138.277 128.864 138.353 128.887 138.423 128.924C138.493 128.962 138.553 129.012 138.602 129.073C138.65 129.133 138.684 129.203 138.703 129.277C138.722 129.35 138.724 129.427 138.711 129.502C138.662 129.705 138.637 129.912 138.636 130.12C138.638 130.618 138.775 131.107 139.033 131.54C139.291 131.973 139.663 132.335 140.111 132.592C140.178 132.627 140.236 132.675 140.283 132.733C140.329 132.79 140.363 132.856 140.381 132.927C140.4 132.997 140.403 133.07 140.391 133.142C140.378 133.213 140.351 133.282 140.31 133.343C139.858 133.954 139.592 134.672 139.542 135.417C139.493 136.162 139.66 136.906 140.027 137.567C141.031 139.48 143.491 141.139 145.812 140.484C146.558 140.269 147.205 139.816 147.642 139.201C147.688 139.155 147.729 139.103 147.762 139.047C147.77 139.028 147.782 139.012 147.798 138.997C148.132 138.523 148.354 137.985 148.448 137.422C149.019 138.283 149.659 139.103 150.362 139.872L150.784 140.32L149.501 147.847L149.312 149.204C149.242 149.673 148.997 150.103 148.621 150.414C148.245 150.725 147.763 150.897 147.265 150.897C146.982 150.897 146.689 150.897 146.407 150.897C145.831 150.897 145.263 150.913 144.697 150.928C142.978 150.968 141.265 151.042 139.556 151.141C138.256 151.222 136.985 151.311 135.708 151.419C135.058 151.469 134.434 151.524 133.79 151.589C133.147 151.654 132.51 151.713 131.873 151.778C130.628 151.911 129.373 152.047 128.125 152.204C126.621 152.393 125.126 152.587 123.621 152.791C121.268 153.119 118.921 153.477 116.565 153.863C114.271 154.24 111.986 154.633 109.691 155.031C106.467 155.597 103.211 156.07 99.9413 156.576C99.0828 156.708 98.2046 156.664 97.3653 156.448C96.5261 156.231 95.7451 155.847 95.0745 155.32C94.4039 154.794 93.8592 154.138 93.4766 153.395C93.0941 152.653 92.8827 151.841 92.8563 151.014C92.4891 140.817 98.5633 122.219 98.5633 122.219C98.7031 120.773 100.513 119.747 101.573 118.925C104.605 116.648 106.396 112.569 107.442 109.136C108.183 106.685 108.885 103.187 106.705 101.179C105.509 100.076 103.832 99.8379 102.691 101.145C101.849 102.109 100.328 107.918 98.1083 105.811C97.7266 105.402 97.4981 104.885 97.4583 104.34C97.2666 102.953 97.7833 101.114 99.2003 100.425C100.455 99.807 101.995 100.246 103.25 99.5938C104.225 99.0685 104.374 97.3876 103.988 96.4698C103.276 94.7889 101.154 94.0843 99.3141 93.9298C98.4937 93.8676 97.6681 93.9197 96.8636 94.0843C98.4268 90.9542 99.8731 86.829 96.7173 85.6456C95.1281 85.0492 93.1423 86.0534 92.1023 87.172C91.891 87.4011 91.6935 87.6415 91.5108 87.892C90.9769 87.5251 90.313 87.372 89.6616 87.4656C87.1428 87.8024 85.7356 90.7997 84.8841 93.3922C82.2548 93.2686 80.7663 96.4822 79.9148 98.432C78.9499 100.678 78.4373 103.076 78.4036 105.502C78.3224 108.082 78.514 110.664 78.9756 113.208C79.1901 114.305 79.5768 115.35 79.8531 116.422C80.1553 117.59 79.8271 118.749 79.3818 119.846C77.6366 124.045 75.1763 127.975 73.3303 132.144C71.3287 136.555 69.724 141.12 68.5333 145.789C66.2388 155.007 65.7676 164.78 68.4488 173.973C73.5188 191.345 99.2068 185.641 113.923 180.771C120.075 178.738 124.323 176.841 124.323 176.841C124.323 176.841 124.355 178.188 124.355 180.468V180.777C124.339 183.867 124.056 208.519 119.688 226.621L119.542 226.859C119.578 226.834 119.646 226.834 119.688 227.053C119.448 227.548 119.064 227.966 118.581 228.258C118.099 228.551 117.537 228.705 116.965 228.703C106.506 228.663 62.4656 230.075 70.8148 257.131C72.3781 262.214 76.4601 265.474 82.1898 267.402C86.7398 268.947 92.3331 269.618 98.5276 269.667H98.5698C86.4603 271.849 83.6426 288.977 97.1528 291.566C102.353 292.561 106.471 289.36 111.144 287.994C113.815 287.243 116.596 286.907 119.38 286.999C121.196 287.041 123.007 287.202 124.801 287.481C144.434 290.537 164.357 291.567 184.224 290.553C197.656 289.851 211.348 288.248 224.095 283.974C233.702 280.748 244.245 275.103 248.977 266.361C250.653 263.285 251.52 259.867 251.502 256.402C251.489 248.167 247.485 242.309 241.476 238.183Z" fill="white"/>
<path d="M38.8107 266.939L38.3206 266.497" stroke="#CCDDE2" stroke-width="0.585007" stroke-miterlimit="10"/>
<path d="M199.495 220.737L198.049 214.542C197.512 212.754 197.09 210.937 196.788 209.1C195.293 199.809 194.188 188.264 193.795 183.942L198.455 185.354L196.83 181.914C196.83 181.914 191.478 164.787 202.186 157.244C194.441 154.738 188.237 156.026 180.99 154.441C178.198 153.823 175.25 153.283 171.994 152.776L169.638 152.383C169.543 158.471 165.088 159.852 161.422 160.513C152.396 162.157 146.147 155.897 146.407 150.446C136.387 150.554 126.484 151.812 116.568 153.412C117.849 156.984 120.546 167.688 112.958 180.345L113.933 180.314C120.085 178.278 124.333 176.383 124.333 176.383C124.333 176.383 124.368 177.731 124.368 180.011V180.32C124.352 183.391 124.069 208.062 119.701 226.16C119.376 226.75 119.63 226.024 119.701 226.679C119.436 227.182 119.254 227.721 119.162 228.277L119.373 227.477C118.197 229.08 121.141 231.024 125.395 232.003C136.517 234.587 197.822 239.11 201.283 228.277C201.486 227.631 201.493 226.943 201.302 226.293C200.799 224.413 200.196 222.559 199.495 220.737Z" fill="#353642"/>
<path d="M119.376 286.533C116.595 286.444 113.818 286.781 111.15 287.531C106.473 288.893 102.349 292.098 97.1555 291.1C83.6452 288.51 86.4662 271.382 98.5757 269.201C99.736 269.176 100.896 269.17 102.047 269.17H102.125C107.702 269.17 113.136 269.309 117.595 267.844C117.175 268.212 106.311 277.374 119.376 286.533Z" fill="#3FBDF1"/>
<path d="M169.627 152.371V152.386C169.533 158.474 165.077 159.855 161.411 160.516C152.386 162.16 146.136 155.9 146.396 150.449" stroke="black" stroke-width="0.585007" stroke-miterlimit="10"/>
<path d="M98.5855 269.201C86.476 271.382 83.655 288.51 97.1653 291.1C102.365 292.098 106.483 288.893 111.16 287.531C113.83 286.78 116.609 286.443 119.392 286.533C121.205 286.58 123.012 286.746 124.8 287.03C144.433 290.093 164.356 291.129 184.223 290.12C197.655 289.416 211.344 287.815 224.091 283.541C233.701 280.312 244.241 274.667 248.973 265.928C250.651 262.851 251.517 259.432 251.498 255.966C251.498 247.722 247.484 241.864 241.488 237.735C240.653 237.164 239.785 236.626 238.888 236.11C229.899 231.052 217.653 229.09 207.383 228.502C206.755 228.462 206.135 228.428 205.527 228.404C204.717 228.372 203.925 228.172 203.206 227.816C202.46 227.461 201.812 226.943 201.315 226.305C200.831 225.701 200.49 225.004 200.317 224.263L199.501 220.74L198.055 214.545L196.788 209.1C195.293 199.809 194.188 188.264 193.794 183.942" stroke="black" stroke-width="0.585007" stroke-miterlimit="10"/>
<path d="M211.631 260.892C207.623 269.602 197.714 266.621 186.827 260.351C180.07 256.461 174.304 255.908 170.902 256.025C175.699 255.617 179.891 254.211 181.071 249.054C182.023 244.864 179.54 241.02 175.244 239.784C185.572 239.351 196.17 240.093 204.575 246.273C204.581 246.273 215.644 252.172 211.631 260.892Z" fill="#3FBDF1"/>
<path d="M175.176 132.19C175.139 132.195 175.102 132.195 175.065 132.19C175.166 132.672 175.358 133.188 175.484 133.701C175.586 134.089 175.63 134.488 175.614 134.888C175.478 136.757 174.084 137.771 172.192 137.82C172.24 138.249 172.15 138.682 171.934 139.061C171.719 139.441 171.387 139.749 170.983 139.946C169.969 140.453 168.308 140.339 167.545 139.446C166.641 138.41 167.09 137.125 167.639 135.991C167.837 135.592 168.035 135.215 168.198 134.872C168.396 134.446 168.568 134.023 168.721 133.59C169.262 131.989 169.681 130.353 169.976 128.695C170.335 127.021 170.573 125.324 170.687 123.619C170.567 123.204 170.645 122.605 170.473 122.172C170.222 121.505 169.77 120.922 169.173 120.498C167.938 119.632 166.293 119.688 164.98 118.922C163.792 118.218 162.854 117.189 162.289 115.971C162.179 115.717 162.075 115.39 161.919 115.106C161.849 114.951 161.744 114.814 161.61 114.704C161.019 114.231 160.674 115.065 160.31 115.39C159.937 115.717 159.495 115.966 159.013 116.118C158.531 116.27 158.02 116.323 157.515 116.274C157.133 116.226 156.761 116.121 156.413 115.965C156.158 115.832 155.919 115.673 155.702 115.489C155.444 115.25 155.143 115.056 154.814 114.917C154.197 114.698 154.164 115.668 154.077 116.005C154.018 116.296 153.891 116.57 153.704 116.808C153.518 117.046 153.277 117.24 153.001 117.377C152.667 117.533 152.3 117.616 151.928 117.621C151.495 117.637 151.061 117.582 150.648 117.457C150.248 117.344 149.868 117.177 149.52 116.96C149.458 116.92 149.385 116.897 149.309 116.894C149.234 116.892 149.159 116.91 149.094 116.945C149.029 116.981 148.975 117.033 148.94 117.097C148.904 117.16 148.888 117.231 148.893 117.303C149.013 120.498 145.87 121.61 144.58 121.938C144.147 127.211 145.502 132.477 148.448 136.964C148.339 137.614 148.061 138.226 147.638 138.747C145.516 139.254 143.066 138.704 142.146 136.964C141.171 135.11 141.304 132.542 142.819 131.22C141.769 131.065 141.476 129.591 142.078 128.726C142.13 128.643 142.152 128.593 142.12 128.513C141.99 128.176 140.446 127.895 140.024 127.771C139.421 127.567 138.876 127.231 138.434 126.791C137.992 126.351 137.664 125.819 137.476 125.238C136.582 122.435 138.85 119.444 141.684 118.767C140.843 117.352 139.734 116.209 139.263 114.574C138.792 112.939 139.058 111.24 140.371 110.004C140.905 109.521 141.558 109.173 142.27 108.99C142.981 108.808 143.73 108.797 144.447 108.96C144.865 109.248 145.235 109.595 145.545 109.989C145.355 109.72 145.202 109.429 145.09 109.123C146.052 109.434 146.896 110.008 147.515 110.773C146.407 109.197 146.819 107.047 148.064 105.656C149.569 103.982 152.526 103.614 154.587 104.473C154.736 104.537 154.88 104.61 155.019 104.692C155.214 104.924 155.412 105.153 155.611 105.372C155.632 105.313 155.658 105.255 155.689 105.199C156.107 105.608 156.503 106.037 156.875 106.484C158.214 102.863 163.534 102.854 166.345 104.742C167.007 105.191 167.55 105.781 167.928 106.466C168.071 107.067 168.058 107.693 167.892 108.289C167.72 108.861 167.857 109.293 168.243 109.417C168.534 109.484 168.841 109.447 169.105 109.312C170.135 108.87 170.986 108.329 172.182 108.453C176.082 108.845 178.926 113.666 176.615 116.811C176.478 117.007 176.323 117.19 176.151 117.358C175.826 117.667 175.094 118.029 174.932 118.471C174.927 118.481 174.927 118.494 174.932 118.505C174.639 119.432 176.797 119.639 177.373 119.877C182.469 121.919 181.393 131.881 175.176 132.19Z" fill="#3FBDF1"/>
<path d="M86.58 107.065C85.3678 104.612 86.255 101.173 87.6363 98.5742C88.6925 96.5564 87.8508 93.3212 85.1533 92.9596C82.3518 92.6012 80.7853 95.96 79.911 97.987C78.9443 100.234 78.4305 102.633 78.3965 105.06C78.3248 107.641 78.524 110.223 78.9913 112.767C79.2058 113.86 79.5925 114.908 79.8655 115.977C80.1678 117.145 79.8395 118.307 79.3943 119.401C77.649 123.6 75.192 127.531 73.3428 131.699C71.3441 136.111 69.7405 140.676 68.549 145.344C66.2545 154.562 65.78 164.336 68.4613 173.528C73.5313 190.9 99.2225 185.196 113.935 180.326C120.087 178.29 124.335 176.396 124.335 176.396C124.335 176.396 124.371 177.743 124.371 180.023C124.371 180.129 124.371 180.237 124.371 180.332C124.39 189.5 124.004 212.536 119.85 226.222C119.67 226.812 119.293 227.331 118.775 227.698C118.257 228.066 117.627 228.262 116.98 228.258C106.522 228.218 62.4845 229.63 70.8305 256.671C73.6515 265.805 84.5748 269.09 98.5303 269.204H98.592C99.7262 269.204 100.887 269.204 102.063 269.173H102.141C107.325 269.002 112.495 268.557 117.627 267.841C135.808 265.406 155.152 260.209 167.648 256.464C168.369 256.283 169.105 256.166 169.848 256.115C170.157 256.081 170.498 256.056 170.882 256.041H170.914C174.31 255.911 180.076 256.464 186.839 260.367C197.727 266.636 207.639 269.618 211.643 260.907C215.647 252.197 204.581 246.273 204.581 246.273C196.176 240.093 185.578 239.361 175.25 239.784C172.061 239.917 168.889 240.17 165.825 240.402C153.559 241.331 141.292 242.258 129.022 243.183L112.947 244.419" stroke="black" stroke-width="0.585007" stroke-miterlimit="10"/>
<path d="M90.9522 105.428C90.9522 105.428 89.2004 102.063 91.3682 96.8004C92.2619 94.6374 93.2922 92.0202 92.8697 89.6502C92.7374 88.7727 92.247 87.9801 91.5047 87.4439C90.971 87.0766 90.3064 86.9245 89.6554 87.0206C87.1399 87.3543 85.7294 90.3547 84.8779 92.9441" stroke="black" stroke-width="0.585007" stroke-miterlimit="10"/>
<path d="M94.611 103.475C94.611 103.475 92.947 100.796 95.2155 96.6768C95.5958 95.9908 96.2393 94.8939 96.8405 93.6455C98.407 90.5153 99.85 86.3902 96.6943 85.2036C95.105 84.6073 93.1193 85.6115 92.0793 86.7332C91.8679 86.9612 91.6704 87.2006 91.4878 87.4501" stroke="black" stroke-width="0.585007" stroke-miterlimit="10"/>
<path d="M96.8499 93.627C97.6542 93.4608 98.48 93.4088 99.3004 93.4725C101.14 93.627 103.262 94.3285 103.977 96.0125C104.364 96.9395 104.224 98.6112 103.236 99.1334C101.982 99.7885 100.444 99.3559 99.1899 99.9677C97.7891 100.654 97.2399 102.492 97.4446 103.883C97.4844 104.428 97.713 104.945 98.0946 105.354C100.311 107.461 101.832 101.646 102.674 100.688C103.818 99.3806 105.492 99.6154 106.688 100.719C108.872 102.727 108.166 106.222 107.422 108.675C106.379 112.108 104.588 116.187 101.572 118.461C100.493 119.271 98.6991 120.315 98.5626 121.761C98.5626 121.761 92.4884 140.348 92.8524 150.554C92.8788 151.38 93.0902 152.192 93.4725 152.934C93.8548 153.676 94.3993 154.332 95.0695 154.859C95.7397 155.385 96.5203 155.77 97.3591 155.986C98.198 156.203 99.0759 156.247 99.9341 156.116C103.184 155.612 106.454 155.14 109.684 154.571C111.979 154.172 114.263 153.78 116.558 153.403C126.76 151.753 136.945 150.471 147.257 150.427C147.756 150.428 148.238 150.258 148.614 149.947C148.99 149.636 149.236 149.206 149.305 148.737L149.5 147.393L150.784 139.85" stroke="black" stroke-width="0.585007" stroke-miterlimit="10"/>
<path d="M229.48 108.7C230.692 106.247 229.805 102.807 228.423 100.209C227.357 98.1909 228.209 94.9557 230.906 94.5942C231.001 94.5942 231.095 94.5787 231.183 94.5787C233.838 94.4551 235.333 97.7336 236.175 99.6865C237.153 102.01 237.658 104.489 237.663 106.991C237.688 109.101 237.524 111.209 237.172 113.292C236.873 115.022 235.908 116.74 236.048 118.52C236.158 120.016 237.088 121.431 237.741 122.778C240.559 128.547 243.858 134.118 246.12 140.082C246.982 142.315 247.657 144.61 248.138 146.945C249.836 155.426 249.221 164.179 246.35 172.369C244.784 176.801 242.028 181.164 238.056 184.006C237.645 184.301 237.223 184.579 236.792 184.841C231.644 188.011 225.034 188.95 219.011 188.827C212.615 188.697 206.18 187.455 200.041 185.796C198.969 185.503 197.901 185.194 196.837 184.869C195.719 184.532 194.61 184.189 193.502 183.83C192.342 183.447 191.182 183.061 190.031 182.653" stroke="black" stroke-width="0.585007" stroke-miterlimit="10"/>
<path d="M231.183 94.5788C230.332 91.9893 228.908 88.989 226.406 88.6552C225.755 88.5591 225.09 88.7112 224.556 89.0786C223.814 89.6148 223.324 90.4074 223.191 91.2848C222.769 93.6549 223.799 96.269 224.693 98.4351C226.861 103.688 225.106 107.065 225.106 107.065" stroke="black" stroke-width="0.585007" stroke-miterlimit="10"/>
<path d="M224.556 89.0785C224.374 88.8251 224.169 88.5903 223.964 88.3585C222.915 87.24 220.939 86.2357 219.346 86.8321C216.194 88.0155 217.637 92.1438 219.203 95.274C219.821 96.51 220.464 97.6193 220.828 98.3053C223.103 102.43 221.429 105.103 221.429 105.103" stroke="black" stroke-width="0.585007" stroke-miterlimit="10"/>
<path d="M219.203 95.274C218.399 95.1083 217.573 95.0552 216.753 95.1164C214.913 95.274 212.791 95.9754 212.076 97.6595C211.689 98.5865 211.829 100.258 212.817 100.78C214.071 101.435 215.609 101 216.863 101.615C218.264 102.301 218.813 104.139 218.608 105.53C218.569 106.075 218.34 106.592 217.958 107.001C215.742 109.108 214.221 103.293 213.379 102.335C212.235 101.024 210.561 101.262 209.365 102.366C207.009 104.529 208.033 108.885 209.021 111.503C210.097 114.361 211.488 117.374 213.714 119.598C217.419 123.306 217.822 129.177 218.803 133.939C219.206 135.911 219.593 137.894 219.902 139.881C220.519 143.728 220.877 147.606 220.552 151.493C220.469 152.561 220.155 153.6 219.63 154.546C219.105 155.493 218.38 156.326 217.5 156.993C216.62 157.661 215.605 158.148 214.518 158.424C213.43 158.701 212.295 158.761 211.182 158.6C196.648 156.484 168.519 152.186 168.519 152.186C168.289 152.148 168.08 152.034 167.929 151.865C167.778 151.695 167.695 151.481 167.694 151.259L167.557 139.458" stroke="black" stroke-width="0.585007" stroke-miterlimit="10"/>
<path d="M144.567 121.928C143.972 128.006 146.192 134.878 150.352 139.408C158.113 147.847 164.652 139.408 164.652 139.408" stroke="black" stroke-width="0.585007" stroke-miterlimit="10"/>
<path d="M170.772 123.813C170.544 123.411 170.677 122.685 170.482 122.175C170.23 121.508 169.779 120.924 169.182 120.498C167.941 119.635 166.3 119.688 164.99 118.928C163.8 118.22 162.861 117.19 162.292 115.971C162.11 115.581 161.967 114.988 161.62 114.707C161.025 114.234 160.68 115.065 160.32 115.393C159.805 115.849 159.158 116.148 158.463 116.25C157.767 116.353 157.055 116.254 156.42 115.968C155.835 115.693 155.428 115.14 154.817 114.92C154.206 114.701 154.167 115.668 154.076 116.008C154.018 116.299 153.892 116.573 153.707 116.811C153.522 117.049 153.282 117.245 153.007 117.383C151.931 117.887 150.462 117.556 149.526 116.96C149.464 116.918 149.39 116.895 149.314 116.892C149.238 116.889 149.162 116.907 149.096 116.943C149.03 116.979 148.976 117.033 148.941 117.097C148.905 117.161 148.89 117.233 148.896 117.306C149.042 121.323 144.037 122.043 144.037 122.043" stroke="black" stroke-width="0.585007" stroke-miterlimit="10"/>
<path d="M151.629 130.769C154.131 130.769 156.159 128.84 156.159 126.461C156.159 124.082 154.131 122.154 151.629 122.154C149.127 122.154 147.098 124.082 147.098 126.461C147.098 128.84 149.127 130.769 151.629 130.769Z" stroke="black" stroke-width="0.585007" stroke-miterlimit="10"/>
<path d="M163.372 130.386C165.874 130.386 167.902 128.457 167.902 126.078C167.902 123.699 165.874 121.771 163.372 121.771C160.869 121.771 158.841 123.699 158.841 126.078C158.841 128.457 160.869 130.386 163.372 130.386Z" stroke="black" stroke-width="0.585007" stroke-miterlimit="10"/>
<path d="M149.734 126.894C149.734 126.894 151.561 128.887 153.439 126.894" stroke="black" stroke-width="0.585007" stroke-miterlimit="10"/>
<path d="M161.526 126.894C161.526 126.894 163.352 128.887 165.234 126.894" stroke="black" stroke-width="0.585007" stroke-miterlimit="10"/>
<path d="M158.044 136.396C158.926 136.396 159.64 135.716 159.64 134.879C159.64 134.041 158.926 133.361 158.044 133.361C157.163 133.361 156.448 134.041 156.448 134.879C156.448 135.716 157.163 136.396 158.044 136.396Z" stroke="black" stroke-width="0.585007" stroke-miterlimit="10"/>
<path d="M156.16 126.461C156.16 126.461 157.187 124.87 158.841 126.078" stroke="black" stroke-width="0.585007" stroke-miterlimit="10"/>
<path d="M154.076 120.068C154.076 120.068 149.374 116.651 145.431 119.873" stroke="black" stroke-width="0.585007" stroke-miterlimit="10"/>
<path d="M167.837 118.276C167.837 118.276 162.25 116.422 159.552 120.64" stroke="black" stroke-width="0.585007" stroke-miterlimit="10"/>
<path d="M148.298 136.816C148.287 137.532 148.039 138.227 147.59 138.802C147.141 139.377 146.513 139.803 145.795 140.02C143.475 140.672 141.018 139.016 140.01 137.103C139.643 136.442 139.475 135.697 139.526 134.951C139.576 134.205 139.843 133.487 140.296 132.876C140.337 132.815 140.364 132.747 140.376 132.675C140.387 132.604 140.384 132.531 140.365 132.461C140.346 132.391 140.312 132.325 140.266 132.268C140.219 132.211 140.161 132.164 140.095 132.128C139.644 131.87 139.271 131.506 139.012 131.07C138.753 130.634 138.618 130.141 138.619 129.641C138.62 129.433 138.644 129.226 138.691 129.023C138.706 128.948 138.704 128.871 138.685 128.796C138.667 128.722 138.633 128.652 138.584 128.591C138.536 128.53 138.475 128.479 138.405 128.442C138.335 128.404 138.257 128.381 138.177 128.374C137.941 128.354 137.706 128.316 137.475 128.263C136.829 128.045 136.245 127.686 135.77 127.215C135.295 126.744 134.943 126.173 134.742 125.55C133.767 122.534 136.221 119.314 139.273 118.588C138.363 117.068 137.157 115.841 136.673 114.077C136.188 112.312 136.468 110.489 137.875 109.173C140.069 107.13 143.79 107.767 145.558 110.007C144.365 108.308 144.811 105.99 146.153 104.501C147.778 102.702 150.947 102.31 153.166 103.225C154.223 103.666 154.902 104.581 155.623 105.388C157.066 101.507 162.773 101.482 165.809 103.515C167.388 104.587 168.409 106.531 167.905 108.305C167.639 109.204 168.129 109.741 169.117 109.327C170.105 108.913 170.999 108.345 172.195 108.468C176.336 108.885 179.277 114.277 176.163 117.374C175.838 117.701 175.107 118.044 174.945 118.486C174.59 119.413 176.791 119.654 177.376 119.892C182.517 121.944 181.389 132.011 175.101 132.215C175.289 133.071 175.718 134.019 175.65 134.903C175.513 136.773 174.119 137.786 172.228 137.845C172.274 138.272 172.183 138.703 171.968 139.081C171.752 139.459 171.421 139.766 171.019 139.962C170.005 140.474 168.344 140.354 167.58 139.461C166.358 138.058 167.613 136.22 168.23 134.879C169.14 132.916 169.589 130.8 170.001 128.699C170.379 126.957 170.622 125.192 170.729 123.418V123.344" stroke="black" stroke-width="0.585007" stroke-miterlimit="10"/>
<path d="M16.2505 266.939H82.3002" stroke="black" stroke-width="0.585007" stroke-miterlimit="10"/>
<path d="M248.502 266.939H308.751" stroke="black" stroke-width="0.585007" stroke-miterlimit="10"/>
</svg>
